:SAMPLES-PER-SECOND 30
:FULLY-SPECIFIED
:DEGREES
38
root  20.8054 51.1602 38.6823 8.39461 4.8779 -2.06079
RightUpLeg  -76.4427 -0.415769 10.8845
RightLeg  117.219 6.05947 -9.96259
RightFoot  -37.4112 0.20451 1.98874
RightToes  -17.1451 -0.0661222 -0.153481
Spine  24.0576 -1.33381 -1.21802
Spine1  -3.84555 -0.289907 6.33435
HEad  19.7801 -12.1517 0.192214
LeftShoulder1  -7.76503e-019 -2.42657e-020 -1.34036e-021
LeftArm  -34.0708 11.3142 -79.2594
LeftForeArm  3.65005 -28.9177 -6.07232
LeftHand  8.67854 41.9923 25.5924
RightShoulder  7.45443e-017 -2.42657e-020 1.96277e-018
RightArm  -26.1637 -13.7704 80.3445
RightForeArm  25.5212 27.0347 4.44405
RightHand  -15.619 44.4025 -34.7633
LeftUpLeg  -75.4976 2.40471 -2.39948
LeftLeg  117.392 -7.99686 13.3383
LeftFoot  -35.2694 -0.392335 -2.85787
LeftToes  -28.4418 1.06988e-006 1.21085e-007
39
root  20.7982 49.7413 39.6038 8.88688 4.95246 -2.08157
RightUpLeg  -78.8185 0.200619 11.4603
RightLeg  123.581 7.37058 -9.53029
RightFoot  -38.7479 0.267517 2.18573
RightToes  -20.7895 -0.0859034 -0.183139
Spine  23.201 -0.548637 -0.793058
Spine1  -3.4148 -0.0347369 6.70099
HEad  16.347 -13.1391 1.34309
LeftShoulder1  -7.76503e-019 -2.42657e-020 -1.34036e-021
LeftArm  -32.2233 13.7938 -82.8046
LeftForeArm  3.78619 -27.7751 -5.79229
LeftHand  9.25074 43.1625 26.3063
RightShoulder  7.45443e-017 -2.42657e-020 1.96277e-018
RightArm  -31.5377 -12.8618 81.4411
RightForeArm  22.1138 25.777 4.35184
RightHand  -15.9069 42.3894 -36.8574
LeftUpLeg  -77.6189 3.18485 -3.31393
LeftLeg  123.895 -9.68491 12.6277
LeftFoot  -37.934 -0.506615 -3.11681
LeftToes  -26.7588 1.06988e-006 1.21085e-007
40
root  20.8307 48.9343 40.2731 8.65583 4.79848 -2.16526
RightUpLeg  -78.6196 0.0947868 11.7078
RightLeg  127.28 7.52206 -8.49188
RightFoot  -40.5542 0.277624 2.13364
RightToes  -23.5906 -0.102366 -0.205046
Spine  23.3554 -0.0347243 -0.347612
Spine1  -3.42496 0.156247 6.91091
HEad  14.6565 -13.6042 1.67336
LeftShoulder1  -7.76503e-019 -2.42657e-020 -1.34036e-021
LeftArm  -30.9958 13.7827 -85.5223
LeftForeArm  7.54477 -24.2525 -4.79453
LeftHand  9.25134 45.1438 24.9295
RightShoulder  7.45443e-017 -2.42657e-020 1.96277e-018
RightArm  -35.0512 -10.3099 82.1975
RightForeArm  21.6925 23.8229 3.95404
RightHand  -15.7471 40.8183 -37.7428
LeftUpLeg  -77.9012 4.51736 -3.86455
LeftLeg  128.12 -10.3162 11.5718
LeftFoot  -39.1038 -0.551878 -3.1936
LeftToes  -27.4494 1.06988e-006 1.21085e-007
41
root  20.8512 48.7471 40.7614 8.76592 5.06644 -1.84223
RightUpLeg  -77.429 -1.05364 11.9085
RightLeg  128.509 7.30564 -7.87337
RightFoot  -42.7586 0.272725 2.01634
RightToes  -22.3142 -0.0947316 -0.195164
Spine  23.1622 0.336776 -0.360726
Spine1  -3.51395 0.271382 6.90423
HEad  14.0148 -14.9056 2.16528
LeftShoulder1  -7.76503e-019 -2.42657e-020 -1.34036e-021
LeftArm  -27.8102 12.9125 -87.3952
LeftForeArm  8.29938 -22.8807 -4.1872
LeftHand  9.94567 46.8498 25.5315
RightShoulder  7.45443e-017 -2.42657e-020 1.96277e-018
RightArm  -33.8781 -7.56031 82.835
RightForeArm  20.705 24.2057 4.08985
RightHand  -14.9341 38.8213 -37.5237
LeftUpLeg  -77.1814 4.98626 -4.5646
LeftLeg  129.431 -10.6988 11.4622
LeftFoot  -39.4475 -0.577265 -3.26307
LeftToes  -28.7703 1.06988e-006 1.21085e-007
42
root  20.8817 49.1351 41.1221 9.77504 5.26962 -1.45309
RightUpLeg  -76.8115 -1.34839 11.2855
RightLeg  127.699 7.16503 -7.9448
RightFoot  -42.4734 0.264934 2.00035
RightToes  -23.4917 -0.0934593 -0.204286
Spine  21.9764 0.384304 -0.345248
Spine1  -3.0796 0.247124 6.6255
HEad  12.8961 -15.1602 2.24932
LeftShoulder1  -7.76503e-019 -2.42657e-020 -1.34036e-021
LeftArm  -22.9723 12.6758 -87.8589
LeftForeArm  7.41728 -26.4209 -5.28429
LeftHand  10.7092 49.1662 25.8312
RightShoulder  7.45443e-017 -2.42657e-020 1.96277e-018
RightArm  -25.3126 -5.46128 82.4916
RightForeArm  16.0398 28.7241 5.34618
RightHand  -14.1551 36.6939 -37.4634
LeftUpLeg  -76.7125 4.67659 -4.66474
LeftLeg  128.676 -9.74219 10.7133
LeftFoot  -39.1934 -0.495195 -2.95675
LeftToes  -28.0247 1.06988e-006 1.21085e-007
43
root  20.8788 50.0555 41.4018 10.9258 5.53788 -1.29969
RightUpLeg  -75.4827 -1.1616 10.5384
RightLeg  124.726 6.8506 -8.45616
RightFoot  -41.211 0.247806 1.99058
RightToes  -25.012 -0.0949136 -0.215848
Spine  20.6235 -0.0462558 -0.322574
Spine1  -3.15919 0.124365 6.67841
HEad  12.1926 -14.3905 1.95361
LeftShoulder1  -7.76503e-019 -2.42657e-020 -1.34036e-021
LeftArm  -16.2119 13.4213 -86.9978
LeftForeArm  6.20466 -32.8562 -6.92317
LeftHand  10.9874 49.0756 26.5258
RightShoulder  7.45443e-017 -2.42657e-020 1.96277e-018
RightArm  -15.9988 -4.87296 81.5683
RightForeArm  13.769 36.2277 7.39815
RightHand  -12.7518 34.1339 -36.1337
LeftUpLeg  -75.6987 4.23939 -4.199
LeftLeg  125.879 -8.55672 10.378
LeftFoot  -37.7327 -0.39098 -2.64309
LeftToes  -28.2878 1.06988e-006 1.21085e-007
44
root  20.8339 51.3021 41.6477 12.8429 4.73367 -1.16116
RightUpLeg  -74.4672 0.251823 9.43513
RightLeg  120.016 6.06871 -8.91193
RightFoot  -39.3993 0.199098 1.87779
RightToes  -24.751 -0.097732 -0.213881
Spine  18.1127 0.953347 -0.146885
Spine1  -2.79543 0.373136 6.55356
HEad  11.2303 -14.8782 1.72208
LeftShoulder1  -7.76503e-019 -2.42657e-020 -1.34036e-021
LeftArm  -10.272 13.2878 -85.736
LeftForeArm  7.02117 -39.1745 -8.69064
LeftHand  10.3711 49.4842 24.8617
RightShoulder  7.45443e-017 -2.42657e-020 1.96277e-018
RightArm  -11.2447 -4.6574 80.3788
RightForeArm  14.5377 43.8328 9.76775
RightHand  -11.6228 33.2808 -33.848
LeftUpLeg  -74.9333 4.99307 -4.1619
LeftLeg  121.287 -7.39824 10.5994
LeftFoot  -35.774 -0.308768 -2.42586
LeftToes  -28.0493 1.06988e-006 1.21085e-007
